<?xml version="1.0" encoding="UTF-8" standalone="no"?>
<svg
   xmlns:dc="http://purl.org/dc/elements/1.1/"
   xmlns:cc="http://creativecommons.org/ns#"
   xmlns:rdf="http://www.w3.org/1999/02/22-rdf-syntax-ns#"
   xmlns:svg="http://www.w3.org/2000/svg"
   xmlns="http://www.w3.org/2000/svg"
   xmlns:sodipodi="http://sodipodi.sourceforge.net/DTD/sodipodi-0.dtd"
   xmlns:inkscape="http://www.inkscape.org/namespaces/inkscape"
   version="1.1"
   id="svg2"
   xml:space="preserve"
   width="5333.3335"
   height="5333.3335"
   viewBox="0 0 5333.3335 5333.3335"
   sodipodi:docname="IonRage_Logo_Mid.ai"><metadata
     id="metadata8"><rdf:RDF><cc:Work
         rdf:about=""><dc:format>image/svg+xml</dc:format><dc:type
           rdf:resource="http://purl.org/dc/dcmitype/StillImage" /></cc:Work></rdf:RDF></metadata><defs
     id="defs6"><clipPath
       clipPathUnits="userSpaceOnUse"
       id="clipPath18"><path
         d="M 0,4000 H 4000 V 0 H 0 Z"
         id="path16" /></clipPath></defs><sodipodi:namedview
     pagecolor="#saudha"
     bordercolor="#666666"
     borderopacity="1"
     objecttolerance="10"
     gridtolerance="10"
     guidetolerance="10"
     inkscape:pageopacity="0"
     inkscape:pageshadow="2"
     inkscape:window-width="640"
     inkscape:window-height="480"
     id="namedview4" /><g
     id="g10"
     inkscape:groupmode="layer"
     inkscape:label="IonRage_Logo_Mid"
     transform="matrix(1.3333333,0,0,-1.3333333,0,5333.3333)"><g
       id="g12"><g
         id="g14"
         clip-path="url(#clipPath18)"><g
           id="g20"
           transform="translate(2059.1885,1994.291)"><path
             d="m 0,0 c -26.185,20.644 -52.369,41.288 -78.553,61.931 3.514,-8.809 7.028,-17.618 10.542,-26.428 C -54.727,25.03 -41.442,14.557 -28.158,4.084 -18.772,2.723 -9.386,1.361 0,0"
             style="fill:#2d96d3;fill-opacity:1;fill-rule:nonzero;stroke:none"
             id="path22" /></g><g
           id="g24"
           transform="translate(2059.1885,1994.291)"><path
             d="m 0,0 c -26.185,20.644 -52.369,41.288 -78.553,61.931 3.514,-8.809 7.028,-17.618 10.542,-26.428 C -54.727,25.03 -41.442,14.557 -28.158,4.084 -18.772,2.723 -9.386,1.361 0,0 Z"
             style="fill:none;stroke:#2d96d3;stroke-width:1;stroke-linecap:butt;stroke-linejoin:miter;stroke-miterlimit:10;stroke-dasharray:none;stroke-opacity:1"
             id="path26" /></g><g
           id="g28"
           transform="translate(1975.3496,2054.1133)"><path
             d="m 0,0 c -4.786,-32.998 -9.571,-65.996 -14.357,-98.995 5.872,7.448 11.744,14.896 17.616,22.345 2.428,16.741 4.856,33.481 7.283,50.222 C 7.028,-17.619 3.514,-8.809 0,0"
             style="fill:#2d96d3;fill-opacity:1;fill-rule:nonzero;stroke:none"
             id="path30" /></g><g
           id="g32"
           transform="translate(1975.3496,2054.1133)"><path
             d="m 0,0 c -4.786,-32.998 -9.571,-65.996 -14.357,-98.995 5.872,7.448 11.744,14.896 17.616,22.345 2.428,16.741 4.856,33.481 7.283,50.222 C 7.028,-17.619 3.514,-8.809 0,0 Z"
             style="fill:none;stroke:#2d96d3;stroke-width:1;stroke-linecap:butt;stroke-linejoin:miter;stroke-miterlimit:10;stroke-dasharray:none;stroke-opacity:1"
             id="path34" /></g><g
           id="g36"
           transform="translate(1965.4614,1951.5957)"><path
             d="M 0,0 C 30.97,12.354 61.941,24.709 92.911,37.063 83.525,38.425 74.138,39.786 64.752,41.147 49.041,34.88 33.328,28.611 17.616,22.344 11.744,14.896 5.872,7.447 0,0"
             style="fill:#2d96d3;fill-opacity:1;fill-rule:nonzero;stroke:none"
             id="path38" /></g><g
           id="g40"
           transform="translate(1965.4614,1951.5957)"><path
             d="M 0,0 C 30.97,12.354 61.941,24.709 92.911,37.063 83.525,38.425 74.138,39.786 64.752,41.147 49.041,34.88 33.328,28.611 17.616,22.344 11.744,14.896 5.872,7.447 0,0 Z"
             style="fill:none;stroke:#2d96d3;stroke-width:1;stroke-linecap:butt;stroke-linejoin:miter;stroke-miterlimit:10;stroke-dasharray:none;stroke-opacity:1"
             id="path42" /></g><g
           id="g44"
           transform="translate(2497.1865,1952.0459)"><path
             d="m 0,0 c -219.95,173.406 -439.901,346.812 -659.851,520.219 29.519,-73.998 59.039,-147.996 88.559,-221.995 C -459.706,210.25 -348.119,122.277 -236.532,34.303 -157.688,22.869 -78.845,11.435 0,0"
             style="fill:#2d96d3;fill-opacity:1;fill-rule:nonzero;stroke:none"
             id="path46" /></g><g
           id="g48"
           transform="translate(2497.1865,1952.0459)"><path
             d="m 0,0 c -219.95,173.406 -439.901,346.812 -659.851,520.219 29.519,-73.998 59.039,-147.996 88.559,-221.995 C -459.706,210.25 -348.119,122.277 -236.532,34.303 -157.688,22.869 -78.845,11.435 0,0 Z"
             style="fill:none;stroke:#2d96d3;stroke-width:1;stroke-linecap:butt;stroke-linejoin:miter;stroke-miterlimit:10;stroke-dasharray:none;stroke-opacity:1"
             id="path50" /></g><g
           id="g52"
           transform="translate(1709.8774,1593.4014)"><path
             d="M 0,0 C 260.149,103.779 520.298,207.559 780.448,311.338 701.604,322.772 622.76,334.207 543.916,345.642 411.935,292.991 279.955,240.341 147.974,187.69 98.649,125.127 49.325,62.563 0,0"
             style="fill:#2d96d3;fill-opacity:1;fill-rule:nonzero;stroke:none"
             id="path54" /></g><g
           id="g56"
           transform="translate(1709.8774,1593.4014)"><path
             d="M 0,0 C 260.149,103.779 520.298,207.559 780.448,311.338 701.604,322.772 622.76,334.207 543.916,345.642 411.935,292.991 279.955,240.341 147.974,187.69 98.649,125.127 49.325,62.563 0,0 Z"
             style="fill:none;stroke:#2d96d3;stroke-width:1;stroke-linecap:butt;stroke-linejoin:miter;stroke-miterlimit:10;stroke-dasharray:none;stroke-opacity:1"
             id="path58" /></g><g
           id="g60"
           transform="translate(1792.936,2454.5527)"><path
             d="m 0,0 c -40.199,-277.186 -80.398,-554.371 -120.597,-831.557 49.325,62.564 98.649,125.127 147.973,187.691 20.395,140.624 40.789,281.248 61.183,421.872 C 59.04,-147.996 29.52,-73.998 0,0"
             style="fill:#2d96d3;fill-opacity:1;fill-rule:nonzero;stroke:none"
             id="path62" /></g><g
           id="g64"
           transform="translate(1792.936,2454.5527)"><path
             d="m 0,0 c -40.199,-277.186 -80.398,-554.371 -120.597,-831.557 49.325,62.564 98.649,125.127 147.973,187.691 20.395,140.624 40.789,281.248 61.183,421.872 C 59.04,-147.996 29.52,-73.998 0,0 Z"
             style="fill:none;stroke:#2d96d3;stroke-width:1;stroke-linecap:butt;stroke-linejoin:miter;stroke-miterlimit:10;stroke-dasharray:none;stroke-opacity:1"
             id="path66" /></g><g
           id="g68"
           transform="translate(2177.5664,1982.873)"><path
             d="m 0,0 c -78.554,61.931 -157.107,123.862 -235.661,185.793 10.543,-26.428 21.085,-52.856 31.628,-79.284 C -164.181,75.09 -124.328,43.671 -84.476,12.252 -56.317,8.168 -28.158,4.084 0,0"
             style="fill:#2d96d3;fill-opacity:1;fill-rule:nonzero;stroke:none"
             id="path70" /></g><g
           id="g72"
           transform="translate(2177.5664,1982.873)"><path
             d="m 0,0 c -78.554,61.931 -157.107,123.862 -235.661,185.793 10.543,-26.428 21.085,-52.856 31.628,-79.284 C -164.181,75.09 -124.328,43.671 -84.476,12.252 -56.317,8.168 -28.158,4.084 0,0 Z"
             style="fill:none;stroke:#2d96d3;stroke-width:1;stroke-linecap:butt;stroke-linejoin:miter;stroke-miterlimit:10;stroke-dasharray:none;stroke-opacity:1"
             id="path74" /></g><g
           id="g76"
           transform="translate(1926.0488,2162.3403)"><path
             d="m 0,0 c -14.357,-98.995 -28.714,-197.99 -43.07,-296.985 17.615,22.345 35.231,44.689 52.847,67.033 7.284,50.223 14.567,100.446 21.851,150.668 C 21.085,-52.856 10.542,-26.428 0,0"
             style="fill:#2d96d3;fill-opacity:1;fill-rule:nonzero;stroke:none"
             id="path78" /></g><g
           id="g80"
           transform="translate(1926.0488,2162.3403)"><path
             d="m 0,0 c -14.357,-98.995 -28.714,-197.99 -43.07,-296.985 17.615,22.345 35.231,44.689 52.847,67.033 7.284,50.223 14.567,100.446 21.851,150.668 C 21.085,-52.856 10.542,-26.428 0,0 Z"
             style="fill:none;stroke:#2d96d3;stroke-width:1;stroke-linecap:butt;stroke-linejoin:miter;stroke-miterlimit:10;stroke-dasharray:none;stroke-opacity:1"
             id="path82" /></g><g
           id="g84"
           transform="translate(1896.3848,1854.7861)"><path
             d="m 0,0 c 92.911,37.064 185.821,74.128 278.731,111.192 -28.158,4.084 -56.317,8.167 -84.475,12.251 C 147.12,104.64 99.984,85.836 52.848,67.032 35.232,44.688 17.616,22.344 0,0"
             style="fill:#2d96d3;fill-opacity:1;fill-rule:nonzero;stroke:none"
             id="path86" /></g><g
           id="g88"
           transform="translate(1896.3848,1854.7861)"><path
             d="m 0,0 c 92.911,37.064 185.821,74.128 278.731,111.192 -28.158,4.084 -56.317,8.167 -84.475,12.251 C 147.12,104.64 99.984,85.836 52.848,67.032 35.232,44.688 17.616,22.344 0,0 Z"
             style="fill:none;stroke:#2d96d3;stroke-width:1;stroke-linecap:butt;stroke-linejoin:miter;stroke-miterlimit:10;stroke-dasharray:none;stroke-opacity:1"
             id="path90" /></g><g
           id="g92"
           transform="translate(286.1606,2886.6304)"><path
             d="m 0,0 c 326.997,-326.879 653.993,-653.758 980.989,-980.637 6.303,-99.635 12.605,-199.271 18.907,-298.906 110.666,149.435 221.332,298.87 331.998,448.305 l 95.941,661.55 c 87.491,-68.978 174.983,-137.955 262.474,-206.932 -31.466,124.344 -62.931,248.687 -94.397,373.031 l -134.626,68.293 c 16.045,112.431 32.09,224.863 48.136,337.295 C 1324.851,586.569 1140.28,771.14 955.71,955.71 637.14,637.141 318.57,318.57 0,0 c 319.191,101.684 638.383,203.368 957.575,305.053 26.101,-26.101 52.201,-52.202 78.302,-78.303 L 994.862,-351.199 C 879.272,-235.609 763.682,-120.02 648.093,-4.43 751.253,98.731 854.414,201.892 957.575,305.053"
             style="fill:#2d96d3;fill-opacity:1;fill-rule:nonzero;stroke:#2d96d3;stroke-width:1;stroke-linecap:butt;stroke-linejoin:miter;stroke-miterlimit:10;stroke-dasharray:none;stroke-opacity:1"
             id="path94" /></g><g
           id="g96"
           transform="translate(2089.0752,72.4561)"><path
             d="m 0,0 c 119.588,446.627 239.175,893.254 358.762,1339.881 83.135,55.275 166.271,110.551 249.407,165.827 -184.747,21.121 -369.495,42.243 -554.242,63.365 -206.964,-82.562 -413.927,-165.125 -620.89,-247.687 15.99,110.259 31.981,220.516 47.971,330.775 -91.952,-89.422 -183.904,-178.844 -275.856,-268.266 l 8.171,-150.736 -316.175,-126.961 C -1170.41,854.07 -1237.967,601.942 -1305.524,349.814 -870.35,233.209 -435.174,116.604 0,0 c -247.656,225.586 -495.313,451.172 -742.97,676.758 9.553,35.654 19.107,71.309 28.66,106.964 173.676,84.484 347.351,168.968 521.026,253.454 -42.308,-157.9 -84.617,-315.798 -126.925,-473.696 -140.921,37.759 -281.841,75.518 -422.761,113.278"
             style="fill:#2d96d3;fill-opacity:1;fill-rule:nonzero;stroke:#2d96d3;stroke-width:1;stroke-linecap:butt;stroke-linejoin:miter;stroke-miterlimit:10;stroke-dasharray:none;stroke-opacity:1"
             id="path98" /></g><g
           id="g100"
           transform="translate(3624.7637,3040.9136)"><path
             d="m 0,0 c -446.583,-119.748 -893.167,-239.496 -1339.751,-359.244 -89.437,44.36 -178.876,88.72 -268.313,133.08 74.081,-170.557 148.163,-341.114 222.245,-511.671 174.982,-137.954 349.965,-275.908 524.947,-413.863 -103.482,-41.281 -206.963,-82.562 -310.444,-123.843 123.418,-34.921 246.835,-69.843 370.253,-104.765 42.152,27.481 84.303,54.962 126.456,82.443 89.345,-70.111 178.692,-140.222 268.038,-210.335 252.128,67.558 504.257,135.115 756.384,202.673 C 233.21,-870.35 116.605,-435.175 0,0 c -71.534,-327.27 -143.069,-654.541 -214.604,-981.811 -35.654,-9.553 -71.309,-19.107 -106.963,-28.66 -160.003,108.164 -320.007,216.329 -480.01,324.494 157.898,42.309 315.797,84.618 473.694,126.927 37.76,-140.92 75.52,-281.84 113.279,-422.761"
             style="fill:#2d96d3;fill-opacity:1;fill-rule:nonzero;stroke:#2d96d3;stroke-width:1;stroke-linecap:butt;stroke-linejoin:miter;stroke-miterlimit:10;stroke-dasharray:none;stroke-opacity:1"
             id="path102" /></g></g></g></g></svg>
